# xmcd CD database file
#
# Track frame offsets:
#	183
#	17100
#	33340
#	51248
#	75480
#	89513
#	102843
#	118275
#	136665
#	154388
#
# Disc length: 2348 seconds
#
# Revision: 0
# Processed by: cddbd v1.4PL0 Copyright (c) Steve Scherf et al.
# Submitted via: Feurio! 1.66 - http://www.feurio.com
#
DISCID=7c092a0a
DTITLE=Eric Robinson - Nashville Cats
DYEAR=1900
DGENRE=Country
TTITLE0=American Music
TTITLE1=It Hurts
TTITLE2=Beautiful Noise
TTITLE3=Old Hippie
TTITLE4=We Never Touch At All
TTITLE5=Country Sunshine
TTITLE6=Chill Factor
TTITLE7=Blue Wing
TTITLE8=Folesome Prison Blues
TTITLE9=Today I Started Lovin' You Again
EXTD=
EXTT0=
EXTT1=
EXTT2=
EXTT3=
EXTT4=
EXTT5=
EXTT6=
EXTT7=
EXTT8=
EXTT9=
PLAYORDER=
